# xmcd CD database file
#
# Track frame offsets:
#	150
#	12952
#	27064
#	38221
#	48553
#	64578
#	79902
#	97764
#	118081
#	134263
#	145618
#	161992
#	179052
#
# Disc length: 2575 seconds
#
# Revision: 0
# Processed by: cddbd v1.4PL0 Copyright (c) Steve Scherf et al.
# Submitted via: CDex 1.50Beta6
#
DISCID=ac0a0d0d
DTITLE=Karel Gott - Zazrak vanocni
DYEAR=2000
DGENRE=New Age
TTITLE0=O krase techto svatku
TTITLE1=Zazrak vanocni
TTITLE2=Slava Glory
TTITLE3=V Betleme vcetne me jasaji
TTITLE4=K vanocum se vratim
TTITLE5=Den zrozeni
TTITLE6=Tam v dalce v meste Betleme
TTITLE7=Purpura
TTITLE8=Kam tak chvatas lasko ma
TTITLE9=Rolnicky
TTITLE10=Male tiche stesti
TTITLE11=Navrat se k ruzim
TTITLE12=Bila zare
EXTD=YEAR: 2000
EXTT0=
EXTT1=
EXTT2=
EXTT3=
EXTT4=
EXTT5=
EXTT6=
EXTT7=
EXTT8=
EXTT9=
EXTT10=
EXTT11=
EXTT12=
PLAYORDER=
